<svg xmlns="http://www.w3.org/2000/svg" width="210.897" height="49" viewBox="0 0 210.897 49"><defs><style>.a{fill:#f76607;}.b{fill:#0c222a;}</style></defs><g transform="translate(241.339 183.51)"><g transform="translate(-241.339 -183.51)"><path class="a" d="M31.425,10.131V33.447a10.046,10.046,0,1,1-4.031-8.061V15.9A18.541,18.541,0,1,0,39.982,33.447V3Z" transform="translate(-2.9 -3)"/><path class="b" d="M149.257,25.09a3.1,3.1,0,0,0-2.356-.744,9.115,9.115,0,0,0-3.845.992V36.562H140.7V22.3l2.17,1.426a10.17,10.17,0,0,1,4.9-1.364,3.845,3.845,0,0,1,3.163,1.24,4.961,4.961,0,0,1,1.116,3.473v9.488H149.94V27.633A3.844,3.844,0,0,0,149.257,25.09Z" transform="translate(-55.25 -10.332)"/><path class="b" d="M175.457,25.09a3.094,3.094,0,0,0-2.356-.744,9.116,9.116,0,0,0-3.845.992V36.562H166.9V22.3l2.17,1.426a10.17,10.17,0,0,1,4.9-1.364,3.845,3.845,0,0,1,3.163,1.24,4.961,4.961,0,0,1,1.178,3.473v9.488H176.2V27.633a3.845,3.845,0,0,0-.744-2.542Z" transform="translate(-65.203 -10.332)"/><path class="b" d="M232.2,24.322a6.821,6.821,0,0,0-3.349,1.24,7.44,7.44,0,0,1,.124,1.612v9.3h-2.108V27.733q0-3.411-2.79-3.411a7.131,7.131,0,0,0-3.225,1.054V36.662H218.5V22.4l2.17,1.426a8.929,8.929,0,0,1,2.294-1.178,7.689,7.689,0,0,1,1.922-.248,4.651,4.651,0,0,1,2.108.5,4.093,4.093,0,0,1,1.488,1.3,10.231,10.231,0,0,1,2.046-1.3,6.2,6.2,0,0,1,2.418-.434,3.659,3.659,0,0,1,3.039,1.3,5.023,5.023,0,0,1,1.178,3.473v9.426h-2.232V27.733Q234.933,24.322,232.2,24.322Z" transform="translate(-84.806 -10.37)"/><path class="b" d="M283.9,46.06l-1.984-1.3,2.728-7.751L279,22l2.48.248,4.341,11.6,4.279-11.6L292.394,22Z" transform="translate(-107.789 -10.218)"/><path class="b" d="M336.879,22.424l.992.31L337,24.842a4.9,4.9,0,0,0-2.108-.434,5.333,5.333,0,0,0-3.038.992V36.562H329.5V22.3l1.736.248.5,1.178a6.263,6.263,0,0,1,3.845-1.364Z" transform="translate(-126.974 -10.332)"/><path class="b" d="M88.825,15.1a10.666,10.666,0,0,1,4.093.744A9.55,9.55,0,0,1,96.08,17.89a9.053,9.053,0,0,1,1.984,3.039,9.86,9.86,0,0,1,0,7.317,9.053,9.053,0,0,1-1.984,3.039,9.55,9.55,0,0,1-3.163,2.046,10.666,10.666,0,0,1-4.093.744H82.5V15.1ZM85.29,16.9V32.338h2.418a10.48,10.48,0,0,0,4.341-.744,7.069,7.069,0,0,0,2.6-1.922,6.511,6.511,0,0,0,1.24-2.542,10.076,10.076,0,0,0,0-4.961,6.511,6.511,0,0,0-1.24-2.542,7.069,7.069,0,0,0-2.6-1.922,10.48,10.48,0,0,0-4.341-.744Z" transform="translate(-33.14 -7.596)"/><path class="b" d="M266.551,24.136a7.761,7.761,0,0,1,1.488,4.713,4.278,4.278,0,0,1-.124,1.55H258.3a4.961,4.961,0,0,0,1.364,3.349,4.217,4.217,0,0,0,3.411,1.3,5.581,5.581,0,0,0,3.1-1.178h.062l1.426.93a6.573,6.573,0,0,1-4.9,2.232,6.711,6.711,0,0,1-5.023-1.8,7.255,7.255,0,0,1-2.046-5.209,8.681,8.681,0,0,1,1.8-5.271,5.643,5.643,0,0,1,4.713-2.17A5.457,5.457,0,0,1,266.551,24.136ZM264.877,25.5a2.6,2.6,0,0,0-2.294-1.178,3.721,3.721,0,0,0-2.976,1.178,5.4,5.4,0,0,0-1.24,2.977h7.317a5.271,5.271,0,0,0-.868-2.976Z" transform="translate(-98.937 -10.432)"/><path class="b" d="M202.751,24.136a7.76,7.76,0,0,1,1.488,4.713,4.279,4.279,0,0,1-.124,1.55H194.5a4.961,4.961,0,0,0,1.364,3.349,4.217,4.217,0,0,0,3.411,1.3,5.581,5.581,0,0,0,3.1-1.178h.062l1.426.93a6.573,6.573,0,0,1-4.9,2.232,6.711,6.711,0,0,1-5.023-1.8,7.255,7.255,0,0,1-2.046-5.209,8.681,8.681,0,0,1,1.8-5.271,5.643,5.643,0,0,1,4.713-2.17,5.457,5.457,0,0,1,4.341,1.55ZM201.077,25.5a2.6,2.6,0,0,0-2.294-1.178,3.721,3.721,0,0,0-2.976,1.178,5.4,5.4,0,0,0-1.24,2.976h7.317a5.271,5.271,0,0,0-.806-2.977Z" transform="translate(-74.699 -10.432)"/><path class="b" d="M125.551,24.136a7.761,7.761,0,0,1,1.488,4.713,4.279,4.279,0,0,1-.124,1.55H117.3a4.961,4.961,0,0,0,1.364,3.349,4.217,4.217,0,0,0,3.411,1.3,5.581,5.581,0,0,0,3.1-1.178h.062l1.426.93a6.573,6.573,0,0,1-4.9,2.232,6.711,6.711,0,0,1-5.023-1.8,7.255,7.255,0,0,1-2.046-5.209,8.682,8.682,0,0,1,1.8-5.271,5.643,5.643,0,0,1,4.713-2.17A5.457,5.457,0,0,1,125.551,24.136ZM123.877,25.5a2.6,2.6,0,0,0-2.294-1.178,3.721,3.721,0,0,0-2.976,1.178,5.4,5.4,0,0,0-1.24,2.976h7.317a5.271,5.271,0,0,0-.868-2.976Z" transform="translate(-45.371 -10.432)"/><path class="b" d="M314.451,24.136a7.76,7.76,0,0,1,1.488,4.713,4.28,4.28,0,0,1-.124,1.55H306.2a4.961,4.961,0,0,0,1.364,3.349,4.217,4.217,0,0,0,3.411,1.3,5.581,5.581,0,0,0,3.1-1.178h.062l1.426.93a6.573,6.573,0,0,1-4.9,2.232,6.711,6.711,0,0,1-5.023-1.8,7.255,7.255,0,0,1-2.046-5.209,8.682,8.682,0,0,1,1.8-5.271,5.643,5.643,0,0,1,4.713-2.17,5.457,5.457,0,0,1,4.341,1.55ZM312.777,25.5a2.6,2.6,0,0,0-2.294-1.178,3.721,3.721,0,0,0-2.976,1.178,5.4,5.4,0,0,0-1.24,2.976h7.317a5.27,5.27,0,0,0-.868-2.977Z" transform="translate(-117.134 -10.432)"/><path class="b" d="M86.869,71.319h-.434a.186.186,0,0,1-.186-.186V63.444H83.086a.186.186,0,0,1-.186-.186v-.372a.186.186,0,0,1,.186-.186h7.131a.186.186,0,0,1,.186.186v.372a.186.186,0,0,1-.186.186H87.055v7.689a.186.186,0,0,1-.186.186Z" transform="translate(-33.292 -25.68)"/><path class="b" d="M104.953,71.167h-.434a.186.186,0,0,1-.186-.186v-4.4a2.542,2.542,0,0,0-.062-.62.868.868,0,0,0-.248-.434l-.5-.31a3.411,3.411,0,0,0-2.232.186l-.372.186-.434.248-.434.248-.248.186v4.713a.186.186,0,0,1-.186.186h-.434A.186.186,0,0,1,99,70.981v-8.5a.186.186,0,0,1,.186-.186h.434a.186.186,0,0,1,.186.186V65.4a6.262,6.262,0,0,1,1.3-.682l.868-.248h.744a2.418,2.418,0,0,1,1.86.62,1.86,1.86,0,0,1,.434.682,2.6,2.6,0,0,1,.124.93v4.4a.186.186,0,0,1-.186.062Z" transform="translate(-39.408 -25.528)"/><path class="b" d="M116.7,72.6a4.4,4.4,0,0,1-1.364-.248,3.162,3.162,0,0,1-1.24-.744,3.225,3.225,0,0,1-.744-1.054,3.968,3.968,0,0,1-.248-1.488,3.473,3.473,0,0,1,.31-1.426,3.1,3.1,0,0,1,.806-1.054,3.411,3.411,0,0,1,1.054-.62,3.845,3.845,0,0,1,2.728.062,3.287,3.287,0,0,1,1.8,1.86,3.721,3.721,0,0,1,.248,1.426.186.186,0,0,1-.186.186h-5.953a2.667,2.667,0,0,0,.248,1.054,2.52,2.52,0,0,0,1.55,1.24,4.341,4.341,0,0,0,1.922.062l.992-.186.744-.186.31-.124h.186l.124.124v.372a.186.186,0,0,1-.124.186l-1.116.31-.992.186Zm-2.79-3.969h5.271a2.6,2.6,0,0,0-.186-.682h0a2.728,2.728,0,0,0-.558-.744,2.481,2.481,0,0,0-.806-.558,2.977,2.977,0,0,0-2.108,0,2.791,2.791,0,0,0-.868.5,2.418,2.418,0,0,0-.558.744,2.17,2.17,0,0,0-.186.744Z" transform="translate(-44.764 -26.837)"/><path class="b" d="M136.62,71.281h-.434A.186.186,0,0,1,136,71.1V62.786a.186.186,0,0,1,.186-.186h.434a.186.186,0,0,1,.186.186V71.1A.186.186,0,0,1,136.62,71.281Z" transform="translate(-53.464 -25.642)"/><path class="b" d="M142.52,71.281h-.434a.186.186,0,0,1-.186-.186V62.785a.186.186,0,0,1,.186-.186h2.728a9.735,9.735,0,0,1,2.046.186,4.527,4.527,0,0,1,1.426.5,2.233,2.233,0,0,1,.806.868,2.3,2.3,0,0,1,.248,1.116,2.419,2.419,0,0,1-.248,1.116h0a2.232,2.232,0,0,1-.868.868,4.838,4.838,0,0,1-1.488.5,11.1,11.1,0,0,1-2.108.186h-1.86v3.163a.186.186,0,0,1-.248.186Zm.186-4.155h1.86a10.169,10.169,0,0,0,1.922-.186,3.968,3.968,0,0,0,1.24-.434,1.55,1.55,0,0,0,.62-.62,1.612,1.612,0,0,0,.186-.744,1.488,1.488,0,0,0-.744-1.3,3.534,3.534,0,0,0-1.116-.434,8.247,8.247,0,0,0-1.8-.186h-2.232Z" transform="translate(-55.706 -25.641)"/><path class="b" d="M168.488,71.359a5.209,5.209,0,0,1-1.736-.31,4.4,4.4,0,0,1-1.488-.868,4.217,4.217,0,0,1-.992-1.426,4.651,4.651,0,0,1-.372-1.922,4.961,4.961,0,0,1,.186-1.488,3.969,3.969,0,0,1,1.364-2.046l.992-.558,1.054-.31a5.209,5.209,0,0,1,2.17,0l.93.372.744.558.62.744a.186.186,0,0,1,.062.124v.124l-.372.248a.186.186,0,0,1-.248-.062l-.558-.62-.62-.434-.682-.248a4.589,4.589,0,0,0-2.17.124,3.721,3.721,0,0,0-1.24.62,3.411,3.411,0,0,0-.93,1.178,3.782,3.782,0,0,0-.372,1.8,3.969,3.969,0,0,0,.31,1.612,3.348,3.348,0,0,0,.806,1.178,3.658,3.658,0,0,0,1.24.744,4.9,4.9,0,0,0,2.914.062,4.589,4.589,0,0,0,1.178-.5V67.825h-3.1a.186.186,0,0,1-.186-.186v-.372a.186.186,0,0,1,.186-.186H171.9a.186.186,0,0,1,.186.186v2.914a.186.186,0,0,1-.062.186,5.768,5.768,0,0,1-1.612.806,6.387,6.387,0,0,1-1.922.186Z" transform="translate(-64.062 -25.534)"/><path class="b" d="M181.02,72.434h-.434a.186.186,0,0,1-.186-.186V65.985a.186.186,0,0,1,.186-.186h.558v.682l.31-.186.62-.31.744-.248a3.472,3.472,0,0,1,1.364-.062l.558.186.372.186.372.31a.186.186,0,0,1,0,.248l-.248.31h-.31l-.248-.248-.248-.124a2.3,2.3,0,0,0-1.364-.062l-.682.248-.62.372-.558.434V72.31A.186.186,0,0,1,181.02,72.434Z" transform="translate(-70.332 -26.795)"/><path class="b" d="M194.32,72.522a4.34,4.34,0,0,1-1.612-.31,3.41,3.41,0,0,1-1.178-.744,3.1,3.1,0,0,1-.682-1.116,3.845,3.845,0,0,1-.248-1.3,3.535,3.535,0,0,1,.31-1.488,3.225,3.225,0,0,1,.806-1.116,3.473,3.473,0,0,1,1.178-.682,4.651,4.651,0,0,1,2.852,0,3.411,3.411,0,0,1,1.178.682,3.225,3.225,0,0,1,.806,1.116,3.535,3.535,0,0,1,.31,1.488,3.844,3.844,0,0,1-.248,1.3,3.1,3.1,0,0,1-.682,1.116,3.41,3.41,0,0,1-1.178.806A4.279,4.279,0,0,1,194.32,72.522Zm0-6.2a3.6,3.6,0,0,0-1.178.186,2.666,2.666,0,0,0-.93.558,2.48,2.48,0,0,0-.62.868,2.79,2.79,0,0,0-.248,1.178,3.039,3.039,0,0,0,.186,1.054,2.418,2.418,0,0,0,.558.868,2.6,2.6,0,0,0,.93.62,3.473,3.473,0,0,0,1.3.248,3.411,3.411,0,0,0,1.3-.248,2.6,2.6,0,0,0,.93-.62,2.418,2.418,0,0,0,.558-.868,3.038,3.038,0,0,0,.186-1.054,2.79,2.79,0,0,0-.248-1.178h0a2.481,2.481,0,0,0-.62-.868,2.667,2.667,0,0,0-.93-.558,3.535,3.535,0,0,0-1.178-.124Z" transform="translate(-74.206 -26.758)"/><path class="b" d="M209.317,72.659a2.48,2.48,0,0,1-1.86-.62,1.923,1.923,0,0,1-.434-.682,2.6,2.6,0,0,1-.124-.93V66.086a.186.186,0,0,1,.186-.186h.434a.186.186,0,0,1,.186.186v4.4a2.789,2.789,0,0,0,.062.62.868.868,0,0,0,.248.434l.434.31a2.666,2.666,0,0,0,1.488.062l.744-.248.744-.372.744-.5V66.086a.186.186,0,0,1,.186-.186h.434a.186.186,0,0,1,.186.186v6.263a.186.186,0,0,1-.186.186h-.434a.186.186,0,0,1-.186-.186V71.6l-.5.31-.806.372A4.4,4.4,0,0,1,209.317,72.659Zm2.108-.992-.31.186Z" transform="translate(-80.397 -26.895)"/><path class="b" d="M222.02,75.348h-.434a.186.186,0,0,1-.186-.186V66.046a.186.186,0,0,1,.186-.186h.558v.62l.186-.124.62-.31.744-.248h.93a3.535,3.535,0,0,1,2.666,1.054,3.349,3.349,0,0,1,.682,1.054,3.534,3.534,0,0,1,.248,1.3,3.97,3.97,0,0,1-.186,1.24h0a3.225,3.225,0,0,1-.682,1.178,3.286,3.286,0,0,1-1.116.744,3.844,3.844,0,0,1-1.55.31H224l-.93-.248-.558-.31-.248-.186v3.287a.186.186,0,0,1-.248.124Zm.186-4.465.558.434.558.31.558.186a3.72,3.72,0,0,0,1.86-.124,2.232,2.232,0,0,0,.93-.62,2.706,2.706,0,0,0,.682-1.922,2.976,2.976,0,0,0-.186-.992,2.543,2.543,0,0,0-.5-.868,2.481,2.481,0,0,0-.868-.62,3.534,3.534,0,0,0-1.922-.186l-.682.186-.558.372-.5.372Z" transform="translate(-85.907 -26.856)"/></g></g></svg>