<svg xmlns="http://www.w3.org/2000/svg" width="196.324" height="35.522" viewBox="0 0 196.324 35.522"><defs><style>.a{fill:#fff;}</style></defs><path class="a" d="M435.229,47.885h25.335V44.79H439.572v-9.9h15.767V31.757H439.572V22.634h20.991V19.551H435.229V47.885" transform="translate(-328.422 -14.753)"/><path class="a" d="M478.331.887,474.9,4.74,485.669.887h-7.338" transform="translate(-358.358 -0.669)"/><path class="a" d="M699.6,44.79V19.551h-3.96V47.885h25.611V44.79H699.6" transform="translate(-524.924 -14.753)"/><path class="a" d="M561.059,19.551,546.652,47.885h4.87l3.686-7.334h17.279l3.717,7.334h4.82L566.6,19.551h-5.546M557.031,37l6.789-13.534L570.688,37Z" transform="translate(-412.501 -14.753)"/><path class="a" d="M315.575,36.037c6.491-1.732,7.122-6.562,7.089-8.289-.388-5.062-3.8-8.2-9.926-8.2H294.88V47.885h4.071V36h11.626l8.553,11.886h5.131s-6.155-8-8.686-11.848m-3.393-3.386H298.951V22.9h13.692c3.152,0,4.926,1.472,5.565,3.341a5.281,5.281,0,0,1-.547,4.109C316.516,32.249,314.342,32.651,312.182,32.651Z" transform="translate(-222.515 -14.753)"/><path class="a" d="M135.767,0c-11.492,0-19.324,8.1-19.324,17.909,0,10.324,8.652,17.612,19.324,17.612s19.314-7.184,19.314-17.612C155.081,8.1,147.152,0,135.767,0m-.138,32a14.39,14.39,0,0,1-14.5-14.086,14.656,14.656,0,0,1,29.308,0C150.436,25.615,143.577,32,135.63,32Z" transform="translate(-87.867)"/><path class="a" d="M74.663,29.575H77.6l5.332-10.024H78.642L74.663,29.575" transform="translate(-56.34 -14.753)"/><path class="a" d="M3.962,44.79V19.551H0V47.885H25.61V44.79H3.962" transform="translate(0 -14.753)"/></svg>