<svg xmlns="http://www.w3.org/2000/svg" width="242.728" height="39.049" viewBox="0 0 242.728 39.049"><defs><style>.a{fill:#fff;}</style></defs><path class="a" d="M203.691,544.067c-14.152,0-21.795,7.839-21.795,19.411s7.519,19.638,21.795,19.638c14.086,0,21.805-8.219,21.805-19.638S217.643,544.067,203.691,544.067Zm-179.778.63v.258a3.63,3.63,0,0,1,2.466,2.972v31.32a3.621,3.621,0,0,1-2.466,2.972v.248H43.8c6.276,0,20.257.531,20.257-10.928a10.024,10.024,0,0,0-9.773-10.268v-.1c4.756-1.021,6.295-5.437,6.295-8.07,0-8.278-10.359-8.38-16.78-8.38L23.913,544.7Zm98.17,0-14.953.01v.248a3.634,3.634,0,0,1,2.477,3.106v31.052a3.613,3.613,0,0,1-2.477,3.1v.248l31.361.01,2.477-8.978-.341-.175c-2.021,2.205-7.8,2.773-10.413,2.92H119.6v-28.08a3.578,3.578,0,0,1,2.487-3.2V544.7Zm38.017,0c-1.373,0-2.749.021-4.087.021l-13.261-.01v.248a3.579,3.579,0,0,1,2.487,3.251v30.753a3.579,3.579,0,0,1-2.487,3.251v.248l14.953.01v-.248a3.622,3.622,0,0,1-2.477-3.055V565.6h3.209c1.4,0,3.746-.021,3.746-.021l7.9,13.477c.48,2.474-1.166,3.147-1.166,3.147v.248h15.634v-.248s-1.661-.278-3.787-3.251l-10.237-14.706v-.114c7.365-1.192,8.947-6.111,8.947-9.783,0-9.184-9.768-9.68-19.38-9.659Zm67.676,0v.258a3.649,3.649,0,0,1,2.456,2.859v31.537a3.638,3.638,0,0,1-2.456,2.859v.248h11.991v-.248a3.614,3.614,0,0,1-2.466-3.055v-21.3h.114l19.71,24.612h7.059V547.71a3.685,3.685,0,0,1,2.456-2.755v-.248H254.649v.248a3.594,3.594,0,0,1,2.477,3.261v19.36h-.113L238.4,544.717l-10.619-.021Zm-161.966.01v.248a3.585,3.585,0,0,1,2.487,3.24v30.794a3.566,3.566,0,0,1-2.487,3.23v.258l36.15-.01,2.477-8.978-.33-.175c-2.546,2.791-11.112,3.052-11.692,3.065H78.287v-11.63h17.76l2.982-6.14-.351-.165c-1.335,1.01-3.374.781-5.738.795H78.287v-8.421H90.2c.578.013,9.149.261,11.692,3.055l.341-.165-2.477-8.988-33.941-.01Zm137.88,5.3c8.858,0,11.62,6.819,11.62,13.467,0,6.816-2.506,13.694-11.62,13.694s-11.61-6.878-11.61-13.694C192.081,556.83,194.83,550.011,203.691,550.011Zm-161.7.64c4.229,0,8.9.254,8.9,4.427,0,5.207-6.244,4.386-10.454,4.386H36.369v-8.8h3.849C40.789,550.661,41.389,550.651,41.993,550.651Zm120.44.248c3.961-.02,7.667.4,7.667,4.1,0,5.49-6.667,4.375-11.589,4.375H155.23v-8.41h3.282C159.76,550.96,161.113,550.905,162.433,550.9ZM44.15,564.737c4.689-.062,10.051.328,10.051,6.243,0,6.094-8.484,5.542-13.116,5.542H36.369V564.788h4.716c.936,0,1.983-.037,3.065-.052Z" transform="translate(-23.913 -544.067)"/></svg>