<svg xmlns="http://www.w3.org/2000/svg" width="156.02" height="32.055" viewBox="0 0 156.02 32.055"><defs><style>.a{fill:#fff;stroke:#fff;stroke-width:1.752px;}</style></defs><g transform="translate(-137.029 -309.543)"><path class="a" d="M174.307,311.131l9.194.029v.683a5.917,5.917,0,0,0-3.118.741q-.74.606-.74,2.935v19.9q0,2.368.812,2.935a7.631,7.631,0,0,0,3.6.645v.789H169.376V339a7.216,7.216,0,0,0,3.567-.674q.812-.6.812-3.06V314.441L158.964,339.83,144.55,314.018V334q0,3.465.972,4.215t4.249.808v.77H137.938l.029-.789q3.219-.019,4.22-.78t1-4.456v-17.9q0-2.6-.74-3.243a5.61,5.61,0,0,0-3.118-.78v-.7l9.861-.011,12.355,22.116Zm21.288,17.978H207.6l-5.423-12.068Zm-.522.9-2.088,3.83a11.725,11.725,0,0,0-.783,1.79,4.618,4.618,0,0,0-.29,1.367,1.438,1.438,0,0,0,.9,1.376,11.055,11.055,0,0,0,3.451.626l-.029.789H184.5V339a10.038,10.038,0,0,0,4.177-1.088,9.686,9.686,0,0,0,2.451-3.2l13.805-24.058h.522l10.7,22.634q.116.308.377.847a8.877,8.877,0,0,0,7.279,4.87l-.029.789h-17.2V339a14.629,14.629,0,0,0,3.509-.529q.87-.337.87-1.049a3.155,3.155,0,0,0-.116-.789,5.692,5.692,0,0,0-.348-.943l-2.552-5.678Zm40.139-5.64q.261,0,.769.019t.769.019q5.916,0,8.759-1.607a5.33,5.33,0,0,0,2.842-4.976A4.956,4.956,0,0,0,246.1,313.3q-2.248-1.415-7.149-1.415-.841,0-1.784.058t-1.958.173Zm0,9.124v2.04q0,2.252.769,2.791a8.166,8.166,0,0,0,3.611.674l.029.789H224.51V339a7.194,7.194,0,0,0,3.6-.683q.812-.606.812-3.263v-19.19q0-2.6-.74-3.243a5.61,5.61,0,0,0-3.118-.78v-.828l16.386-.116q6.032,0,9.31,1.809a5.615,5.615,0,0,1,3.277,5.12,5.382,5.382,0,0,1-3.132,4.831q-3.132,1.771-9.165,2.117a23.405,23.405,0,0,1,6.12,1.867,8.248,8.248,0,0,1,3.277,2.945q.725,1.193,1.74,3.33,2.03,4.273,4.611,4.273a3.005,3.005,0,0,0,1.929-.568,2.438,2.438,0,0,0,.856-1.665h.957a4.842,4.842,0,0,1-1.8,3.734,7.437,7.437,0,0,1-4.669,1.29,8.26,8.26,0,0,1-5.931-1.954q-2.045-1.954-3.234-7.112-.841-3.638-2.436-4.658t-5.394-1.02q-.116,0-.972.029t-1.581.029Zm31,6.256q.2-1.039.3-2.05a20.5,20.5,0,0,0,.1-2.05q0-1.309-.087-2.656t-.261-2.733H267.4a9.925,9.925,0,0,0,3.727,6.795,12.618,12.618,0,0,0,8.019,2.464,10.029,10.029,0,0,0,6.018-1.6,5.137,5.137,0,0,0,2.19-4.389q0-4.408-11.224-7.372-1.305-.346-1.972-.52a13.677,13.677,0,0,1-5.786-2.81,5.582,5.582,0,0,1-1.987-4.254,6.924,6.924,0,0,1,3.364-5.8,14.354,14.354,0,0,1,8.44-2.358,18.777,18.777,0,0,1,5.322.828,24.063,24.063,0,0,0,3.176.828,1.494,1.494,0,0,0,.986-.337,2.629,2.629,0,0,0,.7-1.03h1.218a15.157,15.157,0,0,0-.479,2.117,14.843,14.843,0,0,0-.16,2.214q0,.6.044,1.472t.131,2.069h-1.073a6.916,6.916,0,0,0-2.726-5.486,11.523,11.523,0,0,0-7.077-1.925,9.766,9.766,0,0,0-5.6,1.444,4.418,4.418,0,0,0-2.117,3.811q0,3.33,9.513,5.7.638.154.986.25,6.41,1.617,8.773,3.494a6.037,6.037,0,0,1,2.364,4.976,8.068,8.068,0,0,1-3.654,6.766,15.293,15.293,0,0,1-9.252,2.666,17.685,17.685,0,0,1-6.439-1.145,29.716,29.716,0,0,0-3.19-1.145,2.072,2.072,0,0,0-1.233.462,4.608,4.608,0,0,0-1.146,1.309Z"/></g></svg>