<svg xmlns="http://www.w3.org/2000/svg" width="241.494" height="35.819" viewBox="0 0 241.494 35.819"><defs><style>.a{fill:#fff;}</style></defs><g transform="translate(0 0.001)"><path class="a" d="M10.988,8.832H0V4.764H26.712V8.832H16.072V38.523H10.988Z" transform="translate(0 -3.394)"/><path class="a" d="M177.079,4.824h4.8V38.565h-4.8Z" transform="translate(-126.106 -3.436)"/><path class="a" d="M268.621,58.244V56.662a1.206,1.206,0,0,1-.454.142c-4.192,1.547-6.254,1.777-7.981,1.777-4.711,0-7.737-2.867-7.737-7.274,0-4.383,2.588-6.852,7.737-7.352,2.281-.192,4.993-.276,8.3-.276V40.5c0-3.168-2.461-4.421-5.909-4.421a47.787,47.787,0,0,0-7.85.85V34.114a43.908,43.908,0,0,1,10.023-1.658c2.651,0,5.541.749,6.851,2.056,1.374,1.336,1.833,2.955,1.833,6.659V58.244h-4.812Zm-.136-11.89c-3.306.1-4.743.147-6.316.341-2.984.394-4.442,1.784-4.442,4.253,0,2.745,1.771,4.133,5.247,4.133a31.783,31.783,0,0,0,5.511-.542Z" transform="translate(-179.781 -23.114)"/><path class="a" d="M784.364,58.244V56.662a1.271,1.271,0,0,1-.446.142c-4.117,1.547-5.726,1.777-7.426,1.777-4.617,0-7.579-2.867-7.579-7.274,0-4.383,2.537-6.852,7.579-7.352,2.234-.192,4.49-.276,7.73-.276V40.5c0-3.168-2-4.421-5.387-4.421a42.79,42.79,0,0,0-7.7.444V33.708a33.849,33.849,0,0,1,9.424-1.252c2.6,0,5.423.749,6.711,2.056,1.347,1.336,1.8,2.955,1.8,6.659V58.244h-4.71Zm-.141-11.89a55.5,55.5,0,0,0-5.782.341c-2.924.394-4.357,1.784-4.357,4.253,0,2.745,1.74,4.133,5.137,4.133a26.274,26.274,0,0,0,5-.542Z" transform="translate(-547.58 -23.114)"/><path class="a" d="M452.623,45.12c0,9.1-4.768,13.341-12.649,13.341-7.59,0-12.328-3.968-12.328-12.35,0-9.291,4.676-13.744,12.63-13.744C447.974,32.367,452.623,36.584,452.623,45.12Zm-19.481.244c0,7.442,2.4,9.93,7.045,9.93,4.416,0,6.893-2.765,6.893-9.93,0-7.014-2.412-9.816-7.008-9.816C435.744,35.548,433.143,38.593,433.143,45.364Z" transform="translate(-304.547 -23.051)"/><path class="a" d="M529.2,34.251h4.831v1.582a2.9,2.9,0,0,0,.421-.148,21.285,21.285,0,0,1,8.316-1.407c2.442,0,5.018.4,6.266,1.889,1.267,1.548,1.714,3.487,1.714,7.094V59.522H545.8V44.111c0-5.072-1.909-6.564-6.189-6.564a24.092,24.092,0,0,0-5.444.622V59.522H529.2V34.251Z" transform="translate(-376.867 -24.393)"/><path class="a" d="M641.406,57.818c-5.175,1.189-7.449,1.53-9.2,1.53-8.115,0-12.436-3.455-12.436-12.127,0-9.187,4.571-13.9,12.094-13.9,5.309,0,8.763,1.542,10.046,6.418a25.811,25.811,0,0,1,.681,7.083H625.244v.343c0,6.848,2.659,8.352,9.319,8.352a47.655,47.655,0,0,0,6.843-.646v2.943Zm-4.333-14.1c0-5.9-1.549-7.216-5.637-7.216-4,0-6.135,1.829-6.192,7.216Z" transform="translate(-441.371 -23.733)"/><path class="a" d="M101.6,57.818c-5.175,1.189-7.449,1.53-9.2,1.53-8.115,0-12.436-3.455-12.436-12.127,0-9.187,4.571-13.9,12.094-13.9,5.309,0,8.763,1.542,10.047,6.418a25.823,25.823,0,0,1,.681,7.083H85.442v.343c0,6.848,2.659,8.352,9.32,8.352a47.655,47.655,0,0,0,6.843-.646v2.943Zm-4.563-14.1c0-5.9-1.549-7.216-5.638-7.216-4,0-6.135,1.829-6.192,7.216Z" transform="translate(-56.952 -23.733)"/><path class="a" d="M721.046,34.251v1.871c2.58-2.51,6.072-1.855,9.157-1.06l-.061,2.883c-3.355-.535-9-.62-9,3.763l.061,17.814h-4.961V34.251Z" transform="translate(-510.068 -24.393)"/><path class="a" d="M218.153,34.251h4.777V59.522h-4.777Z" transform="translate(-155.357 -24.393)"/><rect class="a" width="4.803" height="4.03" transform="translate(62.773 3.212)"/><path class="a" d="M341.879,30.947a52.333,52.333,0,0,0,8.295.751c5.051-.115,7.234-1.809,7.228-5.75,0-2.186-1.1-3.617-3.387-4.779l-6.754-3.585c-3.963-2.095-5.809-4.578-5.969-8.168-.252-5.628,3.758-9.252,10.592-9.408a36.629,36.629,0,0,1,8.324.779l-.124,3.583a27.131,27.131,0,0,0-7.351-.752c-4.507.1-6.663,1.755-6.518,5.005.1,2.28,1.2,3.47,4.8,5.281l5.53,2.788c3.954,2,5.807,4.626,5.98,8.508.27,6.016-4.375,10.936-12.235,10.6a38.406,38.406,0,0,1-8.345-.952Z" transform="translate(-243.042 0)"/></g></svg>