<svg xmlns="http://www.w3.org/2000/svg" width="172.62" height="32.861" viewBox="0 0 172.62 32.861"><defs><style>.a{fill:#fff;}</style></defs><path class="a" d="M100.091,25.485H89.176V19.358H100.1a3.174,3.174,0,0,1,3.245,3.052,3.179,3.179,0,0,1-3.251,3.075M89.176,7.522H99.9a2.685,2.685,0,0,1,2.711,2.635A2.724,2.724,0,0,1,99.839,12.8H89.176Zm17.082,8.567c2.019-1.42,2.781-3.773,2.781-6.361A8.949,8.949,0,0,0,99.909.956H81.695V32.051h18.93v.012c5.316,0,9.741-4.1,9.741-9.125a7.788,7.788,0,0,0-4.108-6.848m28.09-15.2V18.367c0,5.346-3.122,7.587-6.96,7.587s-6.942-2.236-6.942-7.582V.886H112.7V18.42c0,11.185,6.572,14.441,14.694,14.441S142.094,29.6,142.094,18.42V.886ZM161.547,13c-6.273-1.362-8.391-1.966-8.391-3.955,0-1.755,2.271-2.641,5.856-2.641a21.578,21.578,0,0,1,9.876,2.881l2.447-6.326A34.455,34.455,0,0,0,157.533,0c-7.587,0-12.323,4.436-12.323,9.858s3.9,7.816,11.636,9.454c6,1.267,7.622,2.03,7.622,3.9s-2.406,2.553-5.657,2.553c-4.208,0-8.256-1.4-12.071-3.04l-2.306,6.167C149,31,153.731,32.7,159.375,32.7c9.406,0,13.244-4.495,13.244-9.735,0-4.659-3.227-8.251-11.073-9.958M15.709.956,0,32.045l9.33.006,2.347-5H22.392l-3.333-6.813H14.829l3.984-8.5L28.847,32.051H38.2L21.882.956ZM78.825,11.3c0-5.662-3.885-10.257-11.871-10.257H50.823V32.133l7.476-.006V7.6h9.172c2.711,0,3.838,1.678,3.838,3.674s-1.185,3.6-3.9,3.6H61L70.7,32.127h7.675s-6.643-11.272-6.608-11.278A9.434,9.434,0,0,0,78.825,11.3M39.8,32.062h7.734V.974H39.8Z"/></svg>