<svg xmlns="http://www.w3.org/2000/svg" width="303.501" height="41.573" viewBox="0 0 303.501 41.573"><defs><style>.a{fill:#fff;}</style></defs><g transform="translate(-21.8 -280.8)"><path class="a" d="M160.779,307.307a5.731,5.731,0,0,0-5.715-3.844c-3.641,0-6.878,2.933-6.878,8.7,0,5.664,3.641,9,7.232,9,1.214,0,2.883-.455,3.338-1.416a7.573,7.573,0,0,0,.2-2.124c0-4.2-.1-4.2-3.085-4.2l.1-.91c.759-.051,4.248-.051,4.956-.1l1.922-.1v.86c-.961.2-1.062.506-1.062,3.945,0,3.237.2,3.389.657,3.692v.455a47.553,47.553,0,0,1-7.333.961c-7.789,0-10.115-5.917-10.115-9.913,0-6.929,5.664-10.014,10.52-10.014a13.105,13.105,0,0,1,3.793.657c.455.1.506.051,1.113-.607h.455a41.806,41.806,0,0,0,.455,4.956h-.556Z" transform="translate(-60.892 -10.626)"/><path class="a" d="M200.761,321.263h-.506c-.253-2.074-.253-2.175-3.692-2.175a6.63,6.63,0,0,0-1.669.152c0,.354-.051,3.136-.051,3.186a17.18,17.18,0,0,0,.253,2.883,14.145,14.145,0,0,0,2.984.354c3.237,0,3.844-1.871,4.147-2.731h.455a11.219,11.219,0,0,1-.91,3.692c-2.883-.2-3.692-.2-5.715-.2s-2.933.051-5.057.2l.051-.607c.759-.152,1.214-.3,1.366-1.113.2-1.366.253-5.513.253-7.131,0-.607-.152-3.591-.152-4.248-.051-1.315-.3-1.467-1.113-1.669a2.189,2.189,0,0,1-.253-.051v-.4h6.929c1.517,0,2.276,0,3.692-.1.051,1.669-.253,3.186-.556,3.186-.1,0-.3-.051-.455-.051a5.457,5.457,0,0,0,.152-.961c0-.91-.91-1.315-3.085-1.315a16.628,16.628,0,0,0-2.731.253,31.5,31.5,0,0,0-.2,3.743v2.124c.506,0,1.214.051,1.972.051a10.974,10.974,0,0,0,2.832-.253c.354-.152.556-1.366.556-1.366h.506v4.552Z" transform="translate(-83.627 -15.075)"/><path class="a" d="M225.318,320.354c0-.91-.051-4.653-.152-5.867-.152-1.972-.152-2.225-1.416-2.326V311.5l3.287-.051c.86,0,2.579-.253,3.389-.253,4.6,0,7.94,3.136,7.94,7.536,0,3.389-2.074,7.738-8.143,7.738-.556,0-2.883-.1-3.338-.1H223.7v-.607c1.416-.051,1.669-.152,1.669-3.793v-1.618Zm4.7-8.4a4.815,4.815,0,0,0-2.276.556,56.708,56.708,0,0,0-.152,5.715c0,1.062,0,4.8.051,6.726a8.343,8.343,0,0,0,2.832.657c2.883,0,5.209-2.731,5.209-6.878-.051-5.007-3.338-6.777-5.664-6.777" transform="translate(-99.789 -15.025)"/><path class="a" d="M271.361,321.263h-.506c-.253-2.074-.253-2.175-3.692-2.175a6.63,6.63,0,0,0-1.669.152c0,.354-.051,3.136-.051,3.186a17.181,17.181,0,0,0,.253,2.883,14.145,14.145,0,0,0,2.984.354c3.237,0,3.844-1.871,4.147-2.731h.455a11.218,11.218,0,0,1-.91,3.692c-2.883-.2-3.692-.2-5.715-.2s-2.933.051-5.057.2l.051-.607c.759-.152,1.214-.3,1.366-1.113.2-1.366.253-5.513.253-7.131,0-.607-.152-3.591-.152-4.248-.051-1.315-.3-1.467-1.113-1.669a2.19,2.19,0,0,1-.253-.051v-.4h6.878c1.517,0,2.276,0,3.692-.1.051,1.669-.253,3.186-.556,3.186-.1,0-.3-.051-.455-.051a5.457,5.457,0,0,0,.152-.961c0-.91-.91-1.315-3.085-1.315a16.628,16.628,0,0,0-2.731.253,31.5,31.5,0,0,0-.2,3.743v2.124c.506,0,1.214.051,1.972.051a10.974,10.974,0,0,0,2.832-.253c.354-.152.556-1.366.556-1.366h.506v4.552Z" transform="translate(-118.521 -15.075)"/><path class="a" d="M301.083,311c4,0,7.182,3.439,7.182,7.839,0,4.046-2.883,7.89-7.283,7.89-4.6,0-7.283-3.743-7.283-7.991A7.413,7.413,0,0,1,301.083,311m.354,14.818c1.416,0,4.3-.961,4.3-5.412,0-3.136-1.366-8.5-5.26-8.5-1.062,0-4.3.556-4.3,5.462,0,4,1.72,8.446,5.26,8.446" transform="translate(-134.386 -14.926)"/><path class="a" d="M344.35,322.225c0-.759.051-4.147.051-4.8,0-5.159-.152-5.361-2.225-5.614l.2-.556c.152,0,.3-.051.556-.051.152,0,.657,0,1.163.051s1.012.1,1.214.1h1.77v.607a1.145,1.145,0,0,0-1.163.556c-.4.86-.455,4.956-.455,6.271,0,.809-.051,4.4-.051,5.159,0,.253.051,1.264.051,1.922l.051.91h-.657a15.745,15.745,0,0,0-3.034-4l-6.676-7.182c-.3-.3-.607-.657-.91-.91,0,.506-.051,1.618-.051,2.074l-.1,5.563c-.051,2.225,0,3.136,2.377,3.54a2.774,2.774,0,0,1,0,.657,4.984,4.984,0,0,1-.86-.1c-.3,0-.657-.051-1.214-.051-.455,0-2.579.152-3.034.152v-.657c1.366,0,1.517-.86,1.568-2.933l.1-7.081c0-2.023,0-3.641-1.821-3.945V311.2c.1,0,.556.051,1.011.051s.91.051,1.113.051h1.012a70.221,70.221,0,0,0,5.108,5.715c1.012,1.062,2.023,2.175,3.035,3.237Z" transform="translate(-152.921 -15.025)"/><path class="a" d="M389.8,321.268c1.214-.4,1.618-.607,1.871-1.618.152-.86.253-7.991.253-9.559,0-4.046-.051-4.7-.1-5.412-.152-1.416-1.315-1.416-1.871-1.467l.1-.809c.4,0,2.023.051,2.377.051s1.366-.051,2.276-.152c.961-.1,1.922-.2,2.276-.2,4.6,0,6.372,2.883,6.372,5.209a5.442,5.442,0,0,1-3.844,5.007c3.136,6.676,5.31,9.508,8.143,9.761v.809c-2.731.051-6.625.051-11.228-10.166-.759-.051-.961-.051-1.669-.1-.051.708-.051,1.264-.051,2.984,0,1.012,0,4.147.354,4.8a2.848,2.848,0,0,0,1.871.91l-.1.759c-.91-.1-1.416-.152-1.871-.2a15.274,15.274,0,0,0-1.669-.051,25.6,25.6,0,0,0-3.439.2v-.759Zm6.625-18.258c-1.467,0-1.467.4-1.517,2.377-.1,2.933-.1,3.338-.1,6.069a4.38,4.38,0,0,0,1.315.1c1.366,0,4.248,0,4.248-4-.051-1.113-.556-4.552-3.945-4.552" transform="translate(-181.884 -10.528)"/><path class="a" d="M431.5,326.066c.759-.1,1.72-.2,2.023-.759.4-.809.4-4.8.4-6.12,0-1.113,0-5.664-.3-6.372-.1-.253-.3-.657-1.922-.657V311.5c.3,0,1.113,0,1.922.051s1.568.051,1.669.051c.556,0,2.478-.051,3.035-.1v.759c-1.062,0-1.416.051-1.669.354-.506.657-.506,4.8-.506,6.018,0,1.113,0,5.664.152,6.372s.3.86,1.922,1.011l-.051.607-3.439-.051c-1.618,0-2.478,0-3.136.051v-.556Z" transform="translate(-202.494 -15.173)"/><path class="a" d="M466.032,325.769a17.158,17.158,0,0,1-4.248.657c-4.2,0-7.384-3.237-7.384-7.789,0-5.26,3.793-7.738,7.839-7.738a5.811,5.811,0,0,1,2.68.556,3.069,3.069,0,0,0,.91.253,1.438,1.438,0,0,0,.607-.2l.3.1c-.1.455-.556,2.731-.607,3.287l-.354-.1c-.1-1.011-.152-1.315-.455-1.669a4.693,4.693,0,0,0-3.49-1.366c-4.8,0-4.8,5.513-4.8,6.777,0,6.625,4.3,7.081,5.159,7.081a4.184,4.184,0,0,0,4.147-3.186l.506.051a3.367,3.367,0,0,1-.152,1.113c-.051.152-.253,1.012-.3,1.113Z" transform="translate(-213.812 -14.877)"/><path class="a" d="M491.7,322.074a19.027,19.027,0,0,0,.152,3.035c.2.556.91.708,1.517.86v.556c-.556,0-3.287-.1-3.591-.1-.556,0-1.264.051-1.871.1l-.2-.556c1.416-.253,1.467-.556,1.568-1.062.253-1.922.354-6.524.354-8.7,0-3.945-.2-4.248-1.517-4.248l.051-.607a3.828,3.828,0,0,1,.759-.051h1.821c.809,0,1.669.051,1.972.051h.961v.556a8.517,8.517,0,0,0-1.214.3c-.253.1-.354.253-.455,1.113a27.413,27.413,0,0,0-.2,4.754c1.517,0,5.057.051,6.575.051a5.375,5.375,0,0,0,1.416-.1V315.7c0-3.439-.1-3.641-1.72-3.945l.1-.556a10.432,10.432,0,0,1,1.062.1,16.811,16.811,0,0,0,1.72.051,18.93,18.93,0,0,0,2.529-.152v.556a1.166,1.166,0,0,0-1.214.86c-.3.961-.3,8.143-.3,9.66,0,3.085.152,3.49,1.517,3.641l-.051.556c-.556-.051-1.416-.1-2.731-.1-.86,0-1.618.051-2.529.1v-.556c.86-.051,1.214-.354,1.366-.91a35.116,35.116,0,0,0,.253-5.715c-1.669-.1-7.738-.1-8.041-.1Z" transform="translate(-230.271 -15.025)"/><path class="a" d="M539.7,312.974c-.759-.607-2.326-.607-3.237-.607a9.045,9.045,0,0,0-1.365.051c-.1,2.124-.152,6.221-.152,10.368,0,2.579.2,2.63,1.163,2.832.759.152.86.1,1.062.152l-.051.607c-.354,0-1.871-.152-2.124-.152a17.73,17.73,0,0,0-4.552.4l-.2-.607c.354-.1,1.972-.556,2.124-.86a46.3,46.3,0,0,0,.3-6.12,59.109,59.109,0,0,0-.2-6.575c-.607-.051-.91-.051-2.023-.051-2.782,0-2.933.455-3.287,1.416l-.556-.152a19.119,19.119,0,0,0,.86-2.782h.354a2.166,2.166,0,0,0,.86.3c.86.1,4.1.1,5.26.1,1.568,0,4.754,0,6.12-.1a.671.671,0,0,0,.506-.152l.3.2a14.311,14.311,0,0,0-.607,2.529l-.657.1Z" transform="translate(-249.497 -14.877)"/><path class="a" d="M572.361,321.263h-.506c-.253-2.074-.253-2.175-3.692-2.175a6.63,6.63,0,0,0-1.669.152c0,.354-.051,3.136-.051,3.186a17.183,17.183,0,0,0,.253,2.883,14.146,14.146,0,0,0,2.984.354c3.287,0,3.844-1.871,4.147-2.731h.455a11.22,11.22,0,0,1-.91,3.692c-2.883-.2-3.692-.2-5.715-.2s-2.933.051-5.058.2l.051-.607c.759-.152,1.214-.3,1.366-1.113.2-1.366.253-5.513.253-7.131,0-.607-.152-3.591-.152-4.248-.051-1.315-.3-1.467-1.062-1.669a2.187,2.187,0,0,1-.253-.051v-.4h6.878c1.517,0,2.276,0,3.692-.1.051,1.669-.253,3.186-.556,3.186-.1,0-.3-.051-.455-.051a5.457,5.457,0,0,0,.152-.961c0-.91-.91-1.315-3.085-1.315a16.628,16.628,0,0,0-2.731.253,31.5,31.5,0,0,0-.2,3.743v2.124c.506,0,1.214.051,1.972.051a10.974,10.974,0,0,0,2.832-.253c.354-.152.556-1.366.556-1.366h.506Z" transform="translate(-267.29 -15.075)"/><path class="a" d="M594.5,325.969c.91-.3,1.264-.506,1.416-1.264.152-.657.2-6.17.2-7.435a28.429,28.429,0,0,0-.1-4.2,1.235,1.235,0,0,0-1.467-1.113l.1-.607h1.871c.3,0,1.062-.051,1.77-.1.759-.051,1.517-.152,1.77-.152,3.591,0,4.956,2.225,4.956,4.046a4.311,4.311,0,0,1-2.984,3.894c2.428,5.159,4.1,7.384,6.322,7.536v.607c-2.124.051-5.159.051-8.7-7.89a5.55,5.55,0,0,1-1.315-.1c0,.556-.051.961-.051,2.326a14.389,14.389,0,0,0,.3,3.743,2.48,2.48,0,0,0,1.467.708l-.1.556c-.708-.1-1.113-.1-1.416-.152h-1.315a20.719,20.719,0,0,0-2.68.152v-.556Zm5.108-14.161c-1.113,0-1.113.3-1.214,1.871-.1,2.276-.1,2.579-.051,4.7a4.089,4.089,0,0,0,1.012.1c1.062,0,3.287,0,3.287-3.085,0-.91-.4-3.591-3.035-3.591" transform="translate(-283.057 -14.976)"/><path class="a" d="M21.8,301.586a20.786,20.786,0,1,1,20.786,20.786A20.786,20.786,0,0,1,21.8,301.586m20.786,18.46a18.46,18.46,0,1,0-18.46-18.46,18.465,18.465,0,0,0,18.46,18.46"/><path class="a" d="M47.084,289.9a16.184,16.184,0,1,0,16.184,16.184A16.167,16.167,0,0,0,47.084,289.9m10.267,21.14h0a6.069,6.069,0,1,1-12.138,0,6.334,6.334,0,0,1,1.163-3.591L43.9,304.061H41.42v4.2h-2.68V296.121h6.625a3.988,3.988,0,0,1,1.618,7.637L48.4,305.73a6.027,6.027,0,0,1,2.832-.708,6.1,6.1,0,0,1,4.653,2.175l-1.972,1.669a3.473,3.473,0,1,0,.455,3.793H51.535v-2.326H57.3v.708Z" transform="translate(-4.498 -4.498)"/><path class="a" d="M55.341,306.8H51.7v3.338h3.641a1.684,1.684,0,0,0,1.669-1.669,1.651,1.651,0,0,0-1.669-1.669" transform="translate(-14.778 -12.85)"/></g></svg>