<svg xmlns="http://www.w3.org/2000/svg" width="36.214" height="31.322" viewBox="0 0 36.214 31.322"><defs><style>.a{fill:#fff;}</style></defs><g transform="translate(-30.742 -33.008)"><g transform="translate(20.851 71.6)"><path class="a" d="M27.463-29.458v6.325h3.392v-6.325c0-3.219-1.522-4.7-4.784-4.7H20.938v11.022h3.393V-31.2H25.81c1.087,0,1.653.37,1.653,1.74Zm7.916-4.7H31.986v11.022h3.393Zm-15.571,0H16.415v8.09H14.936c-1.087,0-1.653-.37-1.653-1.74v-6.35H9.891v6.35c0,3.219,1.522,4.672,4.784,4.672h5.132Zm15.571-4.436H31.986v3.132h3.393ZM19.817-14.014H18.686v-5.074h1.131c1.566,0,2.436.612,2.436,2.537S21.383-14.014,19.817-14.014Zm.2-8.048H15.3V-7.27h3.39v-3.77h1.326c3.7,0,5.719-1.815,5.719-5.511s-2.022-5.511-5.719-5.511Zm9.945,4.436c.152-1.283.718-1.914,1.957-1.914,1.283,0,1.805.674,1.957,1.914Zm1.957-4.7c-3.74,0-5.48,2.414-5.48,5.741,0,3.5,1.848,5.741,5.741,5.741a6.178,6.178,0,0,0,4.393-1.74l-1.979-2a3.23,3.23,0,0,1-2.24.87c-1.239,0-2.044-.392-2.327-1.566h7.242c.043-.326.043-1.218.043-1.392,0-3.131-1.5-5.654-5.393-5.654Zm11.048.261c-3.262,0-4.784,1.479-4.784,4.7v6.324H41.57v-6.324c0-1.37.565-1.74,1.653-1.74H46.1v-2.958H42.962"/></g></g></svg>