<svg xmlns="http://www.w3.org/2000/svg" width="116.565" height="42.09" viewBox="0 0 116.565 42.09"><defs><style>.a{fill:#fff;}</style></defs><path class="a" d="M28.865,0H32.74q4.142,9.541,8.272,19.088-2.194,0-4.388,0c-.584-1.415-1.158-2.835-1.742-4.249H26.615c-.584,1.416-1.154,2.839-1.745,4.252-1.424-.005-2.848,0-4.273,0Q24.727,9.543,28.865,0m1.862,5.082c-.875,2.019-1.741,4.041-2.614,6.06q2.636,0,5.272,0c-.874-2.02-1.739-4.043-2.615-6.062l-.044,0ZM0,.128H4.515l4.988,8q2.493-4,4.986-8,2.259,0,4.518,0,0,9.479,0,18.959-2.08,0-4.158,0,0-6.182,0-12.365-2.586,3.923-5.18,7.843c-.068.1-.144.194-.221.289-.066-.079-.13-.16-.19-.242L4.1,6.808q.005,6.14,0,12.281-2.051,0-4.1,0Zm63.736,0c1.293,0,2.586-.005,3.879,0q4.7,5.83,9.414,11.647-.005-5.825,0-11.651h4.136q0,9.481,0,18.96H77.594q-4.849-6.02-9.711-12.029c.01,4.01-.015,8.019-.01,12.029H63.738q-.006-9.479,0-18.96ZM95.316.1h3.972q0,3.756,0,7.513,3.878,0,7.756,0,0,1.982,0,3.962-3.877,0-7.754,0,0,3.757,0,7.516h-3.97c0-2.506,0-5.011,0-7.517q-3.89,0-7.782,0c0-1.321,0-2.641,0-3.963h7.785q0-3.756,0-7.513ZM42.722,19.089q0-9.481,0-18.961,1.933,0,3.866,0,4.721,5.823,9.43,11.652-.006-5.825,0-11.65h4.136v18.96c-1.189,0-2.377,0-3.565,0q-4.872-6.016-9.73-12.04,0,6.02,0,12.04H42.722ZM0,22.837q2.1,0,4.2,0c0,2.5-.01,5,0,7.5q4.2,0,8.391,0c.006-2.5,0-5,0-7.5h4.187q0,9.483,0,18.966-2.1,0-4.19,0,0-3.8,0-7.6-4.2,0-8.395,0,0,3.8,0,7.6H0Zm20.507,0h4.2q.006,4.86,0,9.72a12.34,12.34,0,0,0,.133,2.493,3.936,3.936,0,0,0,1.4,2.446,4.4,4.4,0,0,0,3.142.7,3.544,3.544,0,0,0,2.5-1.331,5.31,5.31,0,0,0,.88-3.2c.008-3.612,0-7.224.005-10.836h4.186q.005,4.73,0,9.461a15.025,15.025,0,0,1-.438,4.573,6.918,6.918,0,0,1-2.586,3.774,8.749,8.749,0,0,1-4.779,1.446h-.936a8.537,8.537,0,0,1-4.866-1.524A6.849,6.849,0,0,1,20.927,36.9a12.606,12.606,0,0,1-.421-3.66q0-5.2,0-10.4Zm20.178,0H45.2q2.358,4,4.707,8,2.359-4,4.711-8h4.513q0,9.483,0,18.966c-1.388,0-2.777,0-4.165,0q-.008-6.176,0-12.353c-1.685,2.69-3.362,5.387-5.057,8.071l-.119-.01q-2.5-3.983-4.991-7.975,0,6.133,0,12.266-2.056,0-4.113,0,0-9.483,0-18.967Zm22.054,0q2.259,0,4.518,0,2.359,4,4.708,8,2.358-4,4.711-8c1.5,0,3.007,0,4.511,0,0,6.323.01,12.647-.006,18.97-1.387-.006-2.775,0-4.161,0q0-6.172,0-12.344-2.394,3.822-4.785,7.645a1.722,1.722,0,0,1-.34.459c-1.7-2.661-3.357-5.356-5.04-8.031V41.8q-2.059,0-4.117,0Q62.739,32.319,62.739,22.837Zm22.048,0q7.262,0,14.525,0,0,1.861,0,3.722-5.187,0-10.375,0v3.829q4.613,0,9.226,0,0,1.864,0,3.729H88.938c0,1.32-.014,2.641.009,3.96,3.455-.01,6.911,0,10.365,0q0,1.864,0,3.728-7.264,0-14.53,0,0-9.484,0-18.969Zm18.108,0c1.4,0,2.792,0,4.188,0q.012,7.581,0,15.163,4.739,0,9.478,0,0,1.9,0,3.807c-4.558-.007-9.116.01-13.673-.009.009-6.32,0-12.64,0-18.96Z" transform="translate(0)"/></svg>