<svg xmlns="http://www.w3.org/2000/svg" width="246.844" height="41.486" viewBox="0 0 246.844 41.486"><defs><style>.a{fill:#fff;}</style></defs><path class="a" d="M103.171,136.3c0-3.526-2.918-4.837-5.695-5.274,2.808-.687,4.852-2.309,4.821-4.993-.031-3.308-2.59-5.445-8.659-5.445H80.595V142.2H94.231C100.3,142.186,103.171,139.706,103.171,136.3ZM87.506,124.556h3.932c2.543,0,3.667.686,3.667,2.356,0,1.654-1.014,2.418-3.667,2.418H87.506Zm0,13.652v-5.024h4.805c2,0,3.7.484,3.7,2.481,0,1.888-1.4,2.543-3.7,2.543Zm31.283,4.54c8.534,0,13.246-4.306,13.246-11.374,0-6.74-3.854-11.374-13.246-11.374-8.566,0-13.246,4.275-13.246,11.374C105.543,138.114,109.178,142.748,118.789,142.748Zm0-18.317c4.447,0,6.022,2.9,6.022,6.943,0,4.01-1.607,6.943-6.022,6.943-4.509,0-6.022-2.964-6.022-6.943C112.766,127.364,114.561,124.431,118.789,124.431Zm23.528,9.611h3.823c2.808,0,3.542.484,3.885,1.919.125.593.359,2.746.655,4.493a11.724,11.724,0,0,0,.39,1.732H158.4a14.519,14.519,0,0,1-.484-1.919c-.234-1.2-.686-3.947-.889-5.024-.484-2.387-1.794-3.136-4.837-3.526,2.871-.421,5.367-2.091,5.367-5.242,0-3.947-3.136-5.9-8.5-5.9H135.312v21.609h7.005v-8.144Zm0-9.283h4.6c2.356,0,3.667.655,3.667,2.512,0,1.669-.983,2.668-3.667,2.668h-4.6Zm38.834,12.965H168.857V133.48h11.39v-4.4h-11.39V125.04h12.076v-4.462H161.867v21.609h19.3v-4.462Zm10.079.359H202.87l1.825,4.1h7.52l-10.641-21.609h-8.207L182.54,142.186h6.818Zm5.9-12.965L201,133.886h-7.864Zm35.105,12.451H220.656V120.562H213.62v21.609h18.614v-4.6Zm9.377-16.991h-7.037v21.609h7.037V120.577Zm18.77,8.8-3.791-.874c-2.325-.546-3.885-.9-3.885-2.309,0-1.092,1.045-2.06,3.4-2.06,2,0,3.823.811,3.932,2.325h6.8c-.094-3.214-3.448-6.459-10.563-6.459-5.96,0-10.719,2.06-10.719,7.068,0,3.979,3.432,5.18,6.927,5.991l3.932.9c2.325.546,3.932.983,3.932,2.481,0,1.123-.749,2.184-4.057,2.184-2.231,0-4.181-1.139-4.244-2.808H244.98c.016,1.638,2.325,6.943,11.124,6.943,5.57,0,11.327-1.763,11.327-7.005C267.463,131.358,264.2,130.235,260.379,129.377ZM30.262,142.186H61.326v-21.11a27.721,27.721,0,0,0-3.23-.172c-12.295,0-24.2,10.469-27.834,21.282Z" transform="translate(-20.588 -101.277)"/><path class="a" d="M40.738,16.133V0A16.418,16.418,0,0,0,37.4.437c-12.544,3-22.124,13.59-28.973,27.928H8.238A42.9,42.9,0,0,1,23.7,0H0V40.909H5.149C10.7,30.19,22.717,17.381,40.738,16.133Z"/></svg>