<svg xmlns="http://www.w3.org/2000/svg" xmlns:xlink="http://www.w3.org/1999/xlink" width="88.346" height="26.501" viewBox="0 0 88.346 26.501"><defs><style>.a{fill:#fff;}.b{clip-path:url(#a);}.c{clip-path:url(#b);}</style><clipPath id="a"><path class="a" d="M107.6,239.237h20.331v26.5H107.6Zm0,0" transform="translate(-107.598 -239.237)"/></clipPath><clipPath id="b"><path class="a" d="M79.9,239.237h30.771v26.5H79.9Zm0,0" transform="translate(-79.895 -239.237)"/></clipPath></defs><g transform="translate(-112.698 -160.359)"><g transform="translate(112.698 160.359)"><g class="b" transform="translate(68.016 0.002)"><path class="a" d="M128.236,265.736h-9.659c-5.261,0-10.847-3.644-10.857-13.489-.007-8.063,5.072-13.009,10.857-13.009h9.659v8.584h-7.048c-1.262,0-4.236.494-4.236,4.595s2.974,4.7,4.236,4.7h7.048Zm0,0" transform="translate(-107.422 -239.237)"/></g><g class="c" transform="translate(0 0.002)"><path class="a" d="M103.991,257.325c3.4,0,4.412-1.915,4.412-4.273s-1.008-4.266-4.412-4.266H99.217V246.5h10.691v-7.264H89.754v9.548H84.287c-3.407,0-4.392,1.908-4.392,4.266s.985,4.273,4.392,4.273h5.352v8.411h9.578v-8.411Zm0,0" transform="translate(-79.895 -239.237)"/></g><path class="a" d="M113.865,229.276l4.216-19.085v19.085h8.438v-26.5H117.58c-5.373,0-5.877,2.7-6.608,5.938l-1.766,8.6-1.766-8.6c-.727-3.241-1.232-5.938-6.608-5.938H91.894v26.5h8.441V210.19l4.212,19.085Zm0,0" transform="translate(-59.942 -202.777)"/></g></g></svg>