<svg xmlns="http://www.w3.org/2000/svg" width="124.222" height="43" viewBox="0 0 124.222 43"><defs><style>.a{fill:#fff;}</style></defs><path class="a" d="M116.841,26.831h-2.346v-.3h.811V21.84h-1.621v.64H113.3V21.2h.384v.213h4.01V21.2h.384v1.28h-.384v-.64h-1.621v4.692h.811C116.841,26.532,116.841,26.831,116.841,26.831Zm7.423,0H122.3v-.3h.6V24.271h-3.071v2.261h.6v.3h-1.962v-.3h.6V21.755h-.6v-.3h1.962v.3h-.6V23.93H122.9V21.755h-.6v-.3h1.962v.3h-.64v4.778h.64Zm4.437,0h-3.711v-.3h.6V21.755h-.6v-.3h3.242v-.213h.384v1.28h-.384V21.84h-1.92v2.09h1.536v-.6h.384v1.621h-.384v-.64h-1.536V26.49h2v-.725h.384v1.066Zm8.063-5.076h-.6v3.114a1.8,1.8,0,0,1-.981,1.792,2.563,2.563,0,0,1-1.152.3,1.886,1.886,0,0,1-2.048-1.877V21.755h-.6v-.3h1.962v.3h-.6v3.071a1.47,1.47,0,0,0,1.493,1.621,1.547,1.547,0,0,0,1.578-1.664V21.712h-.6v-.3h1.664Zm5.034,5.162h-.256l-3.157-4.309v3.925h.64v.3H137.36v-.3H138V22.053l-.213-.3h-.555v-.3h1.194l2.986,4.1v-3.8h-.64v-.3h1.664v.3h-.6Zm3.157-.085H142.99v-.3h.6V21.755h-.6v-.3h1.962v.3h-.6v4.778h.6Zm3.285.128h-.256l-2.048-5.247h-.469v-.3h2.048v.3h-.768l1.578,4.01,1.578-4.01h-.555v-.3h1.408v.3h-.427Zm6.7-.128h-3.711v-.3h.6V21.755h-.6v-.3h3.242v-.213h.384v1.28h-.384V21.84h-1.92v2.09h1.536v-.6h.384v1.621h-.384v-.64h-1.536V26.49h2v-.725h.384v1.066Zm5.5,0h-.683c-.469,0-.555-.043-.853-.469l-1.237-1.92h-.64v2.133h.6v.3H155.66v-.3h.6v-4.82h-.6v-.3h2.261c.811,0,1.237.213,1.493.725a2.01,2.01,0,0,1,.171.725,1.3,1.3,0,0,1-1.237,1.408l1.194,1.834c.213.3.341.384.512.384h.3v.3Zm-3.413-2.815h.768a1.042,1.042,0,0,0,1.066-1.109,1,1,0,0,0-1.066-1.109h-.768Zm4.436,2.9h-.384v-1.45h.384v.64a1.726,1.726,0,0,0,1.066.427c.64,0,1.109-.341,1.109-.853,0-.469-.3-.811-1.194-1.28-1.024-.555-1.365-.938-1.365-1.621a1.479,1.479,0,0,1,1.621-1.408,2.092,2.092,0,0,1,.981.213v-.3h.384v1.408h-.384v-.6a1.411,1.411,0,0,0-.938-.341.818.818,0,0,0-.9.853c0,.427.256.64,1.28,1.237s1.322.938,1.322,1.621a1.517,1.517,0,0,1-1.621,1.493,1.974,1.974,0,0,1-1.28-.384l-.085.341Zm5.588-.085h-1.962v-.3h.6V21.755h-.6v-.3h1.962v.3h-.6v4.778h.6Zm4.1,0H168.8v-.3h.811V21.84h-1.621v.64H167.6V21.2h.384v.213H172V21.2h.384v1.28H172v-.64h-1.664v4.692h.811Zm5.162,0h-1.962v-.3h.6V24.357l-1.706-2.6h-.469v-.3h2v.3h-.725l1.408,2.133,1.28-2.133h-.725v-.3h1.621v.3H177.2l-1.578,2.56v2.218h.64v.3Zm3.5-2.688a2.63,2.63,0,1,1,2.645,2.815A2.781,2.781,0,0,1,179.8,24.143Zm.811,0c0,1.365.768,2.389,1.834,2.389s1.792-1.024,1.792-2.389-.768-2.389-1.792-2.389C181.383,21.755,180.615,22.736,180.615,24.143Zm6.911,2.688h-1.962v-.3h.6V21.755h-.6v-.3h3.242v-.213h.384v1.28h-.384V21.84h-1.92v2.09h1.536v-.6h.384v1.621h-.384v-.64h-1.536v2.261h.6l.043.256Z" transform="translate(-64.968 -12.156)"/><g transform="translate(48.29 17.106)"><path class="a" d="M114.224,55.116H113.2V51.234h1.024V52.94a4.434,4.434,0,0,0,2.858,1.109c1.706,0,2.9-.9,2.9-2.261,0-1.237-.853-2.133-3.157-3.327-2.73-1.408-3.626-2.517-3.626-4.266,0-2.133,1.792-3.711,4.223-3.711a5.048,5.048,0,0,1,2.56.6v-.768h.981v3.669h-.981V42.446a4.029,4.029,0,0,0-2.517-.938,2.212,2.212,0,0,0-2.432,2.218c0,1.109.64,1.749,3.327,3.285s3.455,2.517,3.455,4.266a4.047,4.047,0,0,1-4.309,3.967,5.564,5.564,0,0,1-3.327-.981Zm17.234-.171h-5.119v-.811h1.621V48.376l-4.479-6.868h-1.237V40.7h5.332v.811h-1.962l3.711,5.674,3.413-5.674h-1.962V40.7h4.309v.811h-1.109l-4.138,6.74v5.887h1.621Zm4.692,0v-.811h1.621V41.508H136.15V40.7h6.356a7.1,7.1,0,0,1-.043,14.205H136.15Zm3.5-1.066h2.6c2.943,0,5.2-2.6,5.162-6.015,0-3.327-2.3-6.015-5.119-6.015h-2.645v12.03ZM162,55.159h-.683l-8.276-11.39V54.135h1.621v.811h-4.351v-.811h1.621V42.318l-.6-.811h-1.493V40.7h3.114l7.935,10.835V41.508h-1.621V40.7h4.351v.811H162Zm12.883-.213h-9.812v-.811h1.621V41.508h-1.621V40.7h8.617v-.6h.981v3.413h-.981V41.678h-5.119v5.546h4.053V45.6l.981-.043v4.266l-.981.043V48.205h-4.053v5.759h5.29V52.087h.981C174.885,52.087,174.885,54.945,174.885,54.945Zm10.622,0h-5.119v-.811h1.621V48.376l-4.479-6.868h-1.237V40.7h5.332v.811h-1.962l3.711,5.674,3.413-5.674h-1.962V40.7h4.309v.811h-1.109l-4.138,6.74v5.887h1.621v.811Z" transform="translate(-113.2 -40.1)"/></g><path class="a" d="M21.287,27.941h3.2v-.469h-3.2Zm0,1.322h3.2v-.469h-3.2Zm0-2.645h3.2V26.15h-3.2Zm-2.261.853h-3.2v.469h3.2Zm0,1.322h-3.2v.469h3.2Zm0-2.645h-3.2v.469h3.2ZM24.06,17.7c-1.28-.085-2.6-.085-3.925-.085-1.28,0-2.6.043-3.882.085v6.441H3.967a18.859,18.859,0,0,0,3.583,8.361,1.354,1.354,0,0,1,1.109-.555H16.3v6.7a14.687,14.687,0,0,0,3.882.512v0a14.456,14.456,0,0,0,3.882-.512v-6.7H31.7a1.354,1.354,0,0,1,1.109.555,19.356,19.356,0,0,0,3.583-8.361H24.06V17.7Zm-6.143,2,1.664.768.6-1.706.6,1.749,1.621-.811-.811,1.664,1.706.6-1.749.6.811,1.621-1.664-.768-.6,1.706-.64-1.749-1.536.853.768-1.664-1.706-.6,1.749-.6C18.685,21.329,17.917,19.708,17.917,19.708ZM12.072,30.33l-1.621-.811-.6,1.749-.6-1.706-1.664.768L8.4,28.709l-1.749-.6,1.706-.6-.811-1.664,1.621.811.6-1.749.6,1.706,1.664-.768-.811,1.621,1.749.64-1.706.6Zm2.645-.128h-.725V29.69h.725Zm0-1.408h-.725v-.512h.725Zm0-1.408h-.725v-.512h.725v.512Zm0-1.45h-.725v-.512h.725ZM15.1,30.2V25.083h3.455a1.257,1.257,0,0,1,1.28,1.28v4.266a1.275,1.275,0,0,0-.981-.469C18.77,30.2,16.125,30.2,15.1,30.2ZM22.4,36.857l-1.664-.768-.6,1.706-.64-1.749-1.578.811.811-1.664-1.706-.6,1.749-.64-.853-1.621,1.664.768.6-1.706.64,1.749,1.621-.811L21.671,34l1.706.6-1.749.64Zm5.8-11.049,1.664.768.6-1.706.64,1.749,1.621-.811-.811,1.664,1.706.6-1.749.6.811,1.621-1.664-.768-.6,1.706-.555-1.706-1.621.811.811-1.664-1.706-.6,1.749-.64a15.322,15.322,0,0,1-.9-1.621Zm-2.6-.384h.725v.512H25.6Zm0,1.408h.725v.512H25.6Zm0,1.408h.725v.512H25.6Zm0,1.45h.725V30.2H25.6Zm-.384-4.607V30.2H21.5a1.213,1.213,0,0,0-.981.469V26.406a1.257,1.257,0,0,1,1.28-1.28h.213C21.969,25.083,25.211,25.083,25.211,25.083ZM31.525,3.327A56.083,56.083,0,0,0,20.135,2,62.736,62.736,0,0,0,4.906,4.266c-.555.128-.981.256-1.237.341V18.343a112.984,112.984,0,0,1,16.466-1.45A112.984,112.984,0,0,1,36.6,18.343V4.564c-.256-.085-.64-.171-1.237-.341-.9-.213-2.261-.555-3.839-.9ZM14.333,4.778c.256-.043-.3-.469.043-.469a3.5,3.5,0,0,1,1.536.3c.128.043.171-.171.384-.3,0,0,.085-.043.128,0,.213.128.3.341.427.3a5.5,5.5,0,0,1,1.536-.3c.384-.043-.171.384.043.469a2.777,2.777,0,0,1,2.218,2.688,2.97,2.97,0,0,1-.213,1.066c-.085.171-.256-.341-.341-.043a3.394,3.394,0,0,1-.469,1.45c-.256.512-.725-.555-.853-.256a1.644,1.644,0,0,1-1.237.768c-.043,0-.085,0-.043-.043a.471.471,0,0,0,.128-.3.132.132,0,0,1,.043-.085,1.01,1.01,0,0,0,.6-.768,5.348,5.348,0,0,1,.384-1.066c.341-.6-.085-1.365.043-1.536a.838.838,0,0,0,.384-.725.9.9,0,0,0-.9-.9.834.834,0,0,0-.64.3l-.043.043a1.131,1.131,0,0,0-.213.256.231.231,0,0,0,.085.341c.6.171.981,1.493.725,1.92A4.527,4.527,0,0,0,17.661,9a.473.473,0,0,1-.469.469.525.525,0,0,1-.469-.3c.171-.085.512-.341.512-.555l-.085-.725a.5.5,0,0,0,.469-.469c.043,0,.043-.043.085-.043.085-.085.171-.341-.043-.3a8.867,8.867,0,0,0-.981.128.092.092,0,0,0-.085.085c0,.043.171.938.213,1.152,0,.043,0,.043-.043.043-.128,0-.384-.043-.427-.043a1.767,1.767,0,0,0-.427.043.042.042,0,0,1-.043-.043c.043-.213.256-1.109.256-1.109V7.252a3.988,3.988,0,0,0-1.066-.171.157.157,0,0,0-.128.043c-.085.128.085.256.171.3a.5.5,0,0,0,.469.469c0,.043-.085.725-.085.725,0,.256.341.427.555.555l.043.043a.525.525,0,0,1-.469.3.473.473,0,0,1-.469-.469,7.712,7.712,0,0,0-.427-1.152c-.256-.469.128-1.792.768-1.92a.2.2,0,0,0,.085-.341c-.256-.256-.555-.6-.938-.6a.9.9,0,0,0-.9.9c0,.555.427.64.384.811a1.878,1.878,0,0,0,.043,1.45,4.219,4.219,0,0,1,.384,1.024,1.094,1.094,0,0,0,.512.768c.128.085.085.171.128.3.043.043.085.085.085.128.043.043,0,.043-.043.043a1.5,1.5,0,0,1-1.28-.768c-.128-.3-.6.725-.853.256a3.954,3.954,0,0,1-.512-1.45c-.085-.3-.256.213-.341.043a2.97,2.97,0,0,1-.213-1.066,2.95,2.95,0,0,1,2.3-2.687Zm3.669.9V5.588a.326.326,0,0,1,.213-.085.382.382,0,0,1,.384.384.387.387,0,0,1-.128.3c-.043.043-.085,0-.085-.043A1.333,1.333,0,0,0,18,5.674Zm-.9,4.394c-.085.256-.427.171-.64.3h-.085c-.171-.171-.512-.085-.64-.341,0,0,0-.085.043-.085a.955.955,0,0,0,.64-.341.059.059,0,0,1,.085,0,.892.892,0,0,0,.555.3c.043.085.085.128.043.171ZM14.5,6.228a.059.059,0,0,1-.085,0,.387.387,0,0,1-.128-.3.382.382,0,0,1,.384-.384.3.3,0,0,1,.256.128.059.059,0,0,1,0,.085.925.925,0,0,0-.427.469Zm-3.5,5.034a.811.811,0,0,0-.555.213c-.128.085-.171-.171,0-.64.128-.384-.64-.6-.811-.427a1.039,1.039,0,0,1-1.536-.085c-.128-.128.3-.085.3-.213.043-.171.213-.256.256-.341A.106.106,0,0,0,8.617,9.6a.654.654,0,0,1-.384-.768c0-.043-.341-.085-.213-.171a1.148,1.148,0,0,1,1.493-.043c.043,0,.128.043.128-.043,0-.171-.085-.3.3-.6.085-.043-.213-.3,0-.3,1.237.3.683,1.578.938,1.834a6.7,6.7,0,0,0,2.688.981,2.4,2.4,0,0,1,.512.171,2.2,2.2,0,0,0,1.877.213c.171-.043.128.128.085.171-1.706,1.621-3.029,1.237-3.5.938a1,1,0,0,0-1.28.213c-.043.043-.128.085-.171-.043a1.174,1.174,0,0,1,.085-.768c.043-.085-.085-.128-.171-.128ZM27.43,12.8a1.635,1.635,0,0,1-1.28.384.759.759,0,0,0-.469.128c-.085.085-.085.128-.085.171a.409.409,0,0,0,.085.384c.085.085.043.171-.085.171a.61.61,0,0,1-.512-.085c-.128-.043-.171,0-.171.085a.426.426,0,0,0,.213.427c.085.085.085.171-.085.213-.256.085-.469-.043-.811-.213-.213-.128-.384-.128-.512.043-.085.085-.085.171-.043.213.128.128.213.427-.128.853-.128.128-.256-.256-.341-.213a.9.9,0,0,1-1.024-.256c-.043-.043-.085-.043-.171,0-.256.171-.768.427-.938-.043-.043-.085-.3.085-.3-.043a.955.955,0,0,1,.938-.938c.085,0,.085-.043.043-.128a.634.634,0,0,1-.171-.6c.043-.171-.384-.213-.213-.3.9-.427,1.365.384,1.536.469.256.128,1.408-.213,1.536-.853.043-.128-.256-.171-.555-.256-.043,0-.085-.085,0-.171a4.443,4.443,0,0,1,2.517-1.322.193.193,0,0,1,.213.171,2.112,2.112,0,0,0,.171.555,1.811,1.811,0,0,0,.64.811.325.325,0,0,1,0,.341Zm5.247-.427c.128.043.128.128.043.213s-.213.128-.512.128c-.128,0-.128.085-.128.128,0,.128.171.256.384.256.128.043.128.128.043.213-.171.171-.427.171-.853.171-.384,0-.683.469-.469.64.171.128.469.427.213,1.237-.085.256-.213-.213-.341-.128-.341.213-.6-.043-.768-.213a.089.089,0,0,0-.171,0,.762.762,0,0,1-1.152.256c-.128-.085-.469.213-.469.085a.943.943,0,0,1,.384-1.024c.043,0,.128-.128-.043-.128a.506.506,0,0,1-.555-.384c0-.043-.3-.043-.3-.128.085-.384.938-.683,1.536-.3.512.341,1.152-.811.683-1.322-.341-.384-2.261.683-2.9-.683-.256-.555.085-1.024-.213-1.066a3.366,3.366,0,0,0-2.815.768,4.725,4.725,0,0,1-5.332.427.094.094,0,0,0-.128.128.807.807,0,0,1-.043.64,3.654,3.654,0,0,1-1.194.768,1.009,1.009,0,0,0-.768,1.322c.043.085,0,.171-.128.128a1.335,1.335,0,0,1-1.109-.811c-.043-.085-.085-.085-.171,0a.567.567,0,0,0-.128.768c.043.085,0,.128-.085.128-.341.043-.555-.341-.853-.3a1.163,1.163,0,0,0-.512.256.188.188,0,0,0-.043.213c.341,1.066-.213,1.109-.256,1.066s0-.213-.171-.213a.669.669,0,0,1-.768-.64c0-.085-.043-.128-.128-.085-.213.171-.768.469-1.109,0-.043-.043-.213,0-.3.043s-.085-.085-.085-.128a1.144,1.144,0,0,1,.683-.981c.085-.043.085-.085.043-.128-.171-.128-.512-.427-.384-.725,0-.043-.256-.171-.213-.213.683-.469,1.493.3,1.621.384s.725.128,2.261-.768a5.7,5.7,0,0,0,1.749-1.322.266.266,0,0,1,.213-.128,2.691,2.691,0,0,0,1.706-.512.141.141,0,0,1,.213,0c.9.6,1.322-.725,1.493-1.365.043-.128.043-.213.171-.256,3.242.171,9.342.128,9.342.128s.811.043.768-.427c-.043-.811-3.413-.768-5.887-.427a6.992,6.992,0,0,1-2.986-.085,1.294,1.294,0,0,1-.725-.6.919.919,0,0,1-.085-.725,2.286,2.286,0,0,1,.213-.469,3.2,3.2,0,0,1,2.56-1.066.222.222,0,0,0,.171-.085.868.868,0,0,1,.853-.768,1.512,1.512,0,0,0,.469-.128c.085-.043.128,0,.085.043a.369.369,0,0,1-.128.256c-.427.384-.384.555-.3.6a.059.059,0,0,0,.085,0c1.322-1.152,2.09-.384,2.3-.128.043.043.043.128-.043.128-.9.213-1.237.981-3.071.853-.213,0-1.706-.085-2.176.6-.256.384-.085.768.725.938a14.981,14.981,0,0,0,2.73-.128c.64-.043,3.541-.427,5.034,0,.64.171,1.578.683,1.365,1.664a1.327,1.327,0,0,1-.725.853s-1.664,1.152,1.322,1.194c.938,0,0,.768-.043.981,0,.171.171.3.3.384ZM27.259,5.93a.681.681,0,0,0-.341.128c-.256.171-1.322.64-1.664.085a2.284,2.284,0,0,0,1.237-.469,1.047,1.047,0,0,1,.853.085c-.043.085,0,.171-.085.171ZM20.178,0A89.7,89.7,0,0,0,0,2.688V16.125C0,28.24,8.66,40.824,20.135,43c11.9-2.346,20.178-14.76,20.178-26.875V2.688A72.71,72.71,0,0,0,20.178,0ZM37.326,21.031c0,9.854-7.508,18.812-17.149,18.812-9.684,0-17.191-8.958-17.191-18.812V4.053l.256-.085A66.567,66.567,0,0,1,20.135,1.28,66.568,66.568,0,0,1,37.028,3.967l.256.085V21.031Z"/></svg>