<svg xmlns="http://www.w3.org/2000/svg" width="158.815" height="47.316" viewBox="0 0 158.815 47.316"><defs><style>.a{fill:#fff;}</style></defs><path class="a" d="M28.575,6.622A22.639,22.639,0,0,0,16.139,48.174V34.926H13.852v9.053a37.875,37.875,0,0,1-3.192-4.621,19.808,19.808,0,0,1-2.621-10.1,20.538,20.538,0,1,1,41.075,0,20.134,20.134,0,0,1-2.672,10.149,35.81,35.81,0,0,1-3.189,4.572V34.926H41.012V48.177A22.64,22.64,0,0,0,28.576,6.622ZM98,7.816l-3,.618v.809l1.334.287V24.061l-1.383.284V25.3h4.812v-1l-1.142-.24V16.388a3.408,3.408,0,0,1,2.241-1.047c1.334,0,1.334,1.382,1.334,2.336v6.433l-1.142.238V25.3h4.766v-1l-1.241-.24V16.582a2.678,2.678,0,0,0-2.861-2.954,5.035,5.035,0,0,0-3.1,1.38V7.816H98Zm20.538,0a1.524,1.524,0,1,0,1.571,1.525,1.535,1.535,0,0,0-1.571-1.525Zm-52.794.949c-1.049,0-2.051.142-3.1.142h-2.9v1l1.62.284V24.061l-1.62.284V25.3H62.5c.573,0,3.145.047,3.67.047,1.336,0,3.576.05,4.861-2.14a4.252,4.252,0,0,0,.525-2.287,4.338,4.338,0,0,0-1.191-3.052,4.449,4.449,0,0,0-2.572-1.287,4.239,4.239,0,0,0,2.858-3.908,4.16,4.16,0,0,0-1-2.618,5.116,5.116,0,0,0-3.908-1.29Zm-.429,1.049c.856,0,2.572.384,2.572,3.145,0,3.1-1.857,3.194-2.954,3.194H63.743V10.1a4.219,4.219,0,0,1,1.571-.287ZM28.575,11.53l-6.911,5.384L22.9,18.536l5.67-4.386,5.673,4.386,1.235-1.623L28.575,11.53Zm49.8,1.858c-3.336,0-4.717,3.431-4.717,6.247,0,3.714,2,5.905,4.574,5.905,2.526,0,4.812-2.144,4.812-6.195,0-5.195-3.289-5.957-4.67-5.957Zm11.007.047c-3.432,0-4.337,3.671-4.337,6.337,0,3.432,1.477,5.768,4.288,5.768,2.191,0,3.146-.906,4.1-2.763l-1.047-.432a2.667,2.667,0,0,1-2.148,1.522c-2.334,0-2.715-2.666-2.809-4.574h6.05c-.046-2.809-.573-5.859-4.1-5.859Zm50.741,0a3.892,3.892,0,0,0-4.1,3.957,3.568,3.568,0,0,0,1.951,3.287c-1.241.762-2.189,1.571-2.189,2.476a1.617,1.617,0,0,0,1.334,1.525c-.81.573-1.809,1.285-1.809,2.478,0,1.763,2.19,2.429,4.192,2.429,3.667,0,5.72-1.811,5.72-4,0-2.1-1.243-2.811-3.29-2.858l-3.05-.1c-.191,0-.812-.141-.812-.525,0-.286.429-.665.861-1a6.874,6.874,0,0,0,1.38.191,3.868,3.868,0,0,0,3.954-3.861,3.825,3.825,0,0,0-.855-2.336l1.9.052V13.724l-2.716.093c-.809,0-1.621-.38-2.478-.38Zm11.1,0c-3.431,0-4.334,3.669-4.334,6.337,0,3.432,1.476,5.766,4.288,5.766,2.19,0,3.144-.908,4.1-2.763l-1.047-.432a2.663,2.663,0,0,1-2.145,1.525c-2.337,0-2.715-2.669-2.812-4.572h6.053c-.048-2.809-.573-5.862-4.1-5.862Zm-25.16.093-2.954.765v.954l1.383.142v8.674l-1.383.284V25.3h4.908v-1l-1.191-.238V16.3a3.354,3.354,0,0,1,2.192-1.093c1.335,0,1.336,1.381,1.336,1.951v6.957l-1.241.238V25.3h4.812v-1l-1.241-.238V16.582c0-1.859-.951-3-2.9-3a4.785,4.785,0,0,0-3.052,1.385V13.53Zm34.355,0-2.905.76v.765l1.383.24v8.767l-1.383.284V25.3H162.8v-1l-1.667-.238V17.821a2.845,2.845,0,0,1,1.476-2l1.238.669a1.92,1.92,0,0,0,.91-1.432,1.277,1.277,0,0,0-1.385-1.38c-1,0-1.522.765-2.287,2.052V13.533h-.667Zm-49.885,0-2.9.76v.762l1.38.24v8.767l-1.38.284v.956h5.288v-1l-1.667-.24V17.823a2.943,2.943,0,0,1,1.525-2.006l1.241.667c.333-.335.9-.713.855-1.429a1.262,1.262,0,0,0-1.334-1.38c-1,0-1.572.766-2.334,2.052V13.535h-.669Zm8.815.093-3,.76V15.2l1.238.289v8.578l-1.238.284V25.3h4.91v-1l-1.336-.238V13.628h-.574Zm20.725.858c1.524,0,1.67,1.714,1.67,3,0,1.191-.194,2.667-1.577,2.667-1.475,0-1.667-1.571-1.667-2.858,0-1.192.1-2.812,1.574-2.812Zm-61.655.047c1.714,0,2.049,2.81,2.049,4.763,0,1.526-.188,5.053-2.238,5.053-1.334,0-2.049-1.859-2.049-4.673,0-1.331.093-5.143,2.238-5.143Zm11.007.047c1.43,0,1.577,2.143,1.623,3.574H87.424c.143-1.432.476-3.574,2-3.574Zm61.844,0c1.43,0,1.573,2.148,1.62,3.574h-3.623c.146-1.426.476-3.574,2-3.574ZM63.741,17.3h1.047c1.621,0,4.052.242,4.052,3.479a3.255,3.255,0,0,1-1.478,3,4.223,4.223,0,0,1-2.1.571,2.6,2.6,0,0,1-1.522-.377V17.3ZM27.43,20.2V51.844c.382,0,.761.049,1.145.049s.764-.049,1.1-.049V20.2H27.43Zm-4.525,0V51.174a13.19,13.19,0,0,0,2.241.476V20.2H22.9Zm9.051,0V51.7c.762-.143,1.574-.333,2.241-.525V20.206H31.956ZM138.45,24.876a34.279,34.279,0,0,1,4.239.426c.476.094.812.331.812,1.142,0,1.048-1.526,1.858-3.479,1.858-1.429,0-2.478-.572-2.478-1.62a2.379,2.379,0,0,1,.907-1.807Zm-34.494,7.242-3,.667v.809l1.334.145V48.413l-1.383.287v.954h4.91v-1l-1.241-.284V32.118h-.62Zm6.72,0-3,.667v.809l1.334.24V48.416l-1.38.284v.954h4.859v-1l-1.191-.287V40.742a3.477,3.477,0,0,1,2.241-1.1c1.381,0,1.334,1.382,1.334,2.336v6.479l-1.142.238v.954h4.766v-1l-1.241-.287V40.887a2.629,2.629,0,0,0-2.812-2.908,4.907,4.907,0,0,0-3.145,1.38V32.118h-.618Zm22.438,0a1.618,1.618,0,0,0-1.571,1.571,1.577,1.577,0,0,0,1.571,1.525,1.54,1.54,0,0,0,1.478-1.574,1.5,1.5,0,0,0-1.478-1.522Zm-73.284,1.1V34.26l1.527.238V48.412l-1.525.287v.954h5.43v-1l-1.38-.284V34.5l1.429-.287v-1H59.83ZM18.375,34.927V49.459a18.332,18.332,0,0,0,2.238,1V34.927H18.375Zm18.107,0V50.511c.761-.333,1.528-.668,2.29-1.052V34.927h-2.29Zm47.556,2.858A3.947,3.947,0,0,0,80.191,40.3h0a4.188,4.188,0,0,0-.248,1.447,3.486,3.486,0,0,0,1.951,3.236c-1.236.764-2.142,1.62-2.142,2.525,0,.764.524,1.243,1.334,1.525a3.146,3.146,0,0,0-1.856,2.478c0,1.765,2.191,2.429,4.192,2.429,3.671,0,5.72-1.81,5.72-4.05,0-2.047-1.239-2.718-3.287-2.812L82.8,46.934c-.192,0-.809-.093-.809-.478,0-.332.429-.712.907-1.049a4.279,4.279,0,0,0,1.334.194,3.835,3.835,0,0,0,3.954-3.859,3.109,3.109,0,0,0-.344-1.445,6.7,6.7,0,0,0-.514-.845l1.954.049V38.069l-2.763.1c-.812,0-1.621-.38-2.478-.38Zm11.1,0c-3.431,0-4.334,3.672-4.334,6.34,0,3.432,1.475,5.763,4.285,5.763,2.193,0,3.147-.9,4.1-2.76L98.143,46.7A2.673,2.673,0,0,1,96,48.221c-2.336,0-2.718-2.669-2.812-4.574h6.05c-.045-2.811-.573-5.862-4.1-5.862Zm29.5,0c-3.43,0-4.337,3.672-4.337,6.34,0,3.432,1.478,5.763,4.29,5.763,2.19,0,3.145-.9,4.1-2.76l-1.049-.432a2.674,2.674,0,0,1-2.145,1.525c-2.334,0-2.718-2.669-2.812-4.574h6.05c-.045-2.811-.571-5.862-4.1-5.862Zm16.006.049-3,.76V39.4l1.38.24V48.41l-1.38.287v.954h4.81v-1l-1.091-.284V40.69a3.153,3.153,0,0,1,2.235-1.093c1.191,0,1.478,1.1,1.478,2V48.41l-1.334.287v.954H148.5v-1l-1.145-.284V40.739A3.225,3.225,0,0,1,149.6,39.6c1.286,0,1.38,1.333,1.38,1.954V48.41l-1.238.289v.954H154.7v-1l-1.336-.284V40.834h0a2.672,2.672,0,0,0-3-2.858,4.5,4.5,0,0,0-3.238,1.574,2.844,2.844,0,0,0-2.667-1.527,4.843,4.843,0,0,0-3.194,1.38V37.834h-.618Zm-70.614,0-2.954.76v.956l1.383.189v8.676l-1.383.284v.954h4.908v-1l-1.241-.284V40.6c.123-.106.244-.207.37-.3a3.088,3.088,0,0,1,1.871-.747,1.141,1.141,0,0,1,1.168.75,3.267,3.267,0,0,1,.168,1.2v6.957l-1.243.24v.954h4.817v-1l-1.241-.284V40.884a4.589,4.589,0,0,0-.036-.584,2.6,2.6,0,0,0-2.871-2.417,5.036,5.036,0,0,0-3.05,1.383V37.837h-.667Zm63.85.14-3.006.762V39.5l1.241.282V48.41l-1.241.289v.954h4.861v-1l-1.287-.284V37.976h-.569Zm-49.888.812c.951,0,1.382.682,1.571,1.512h0a6.978,6.978,0,0,1,.142,1.538c0,1.142-.191,2.667-1.623,2.667-1.477,0-1.618-1.62-1.618-2.858a8.116,8.116,0,0,1,.088-1.349h0c.142-.814.511-1.509,1.434-1.509Zm11.2.142c1.429,0,1.574,2.144,1.62,3.574H93.185c.143-1.43.476-3.574,2-3.574Zm29.5,0c1.432,0,1.573,2.144,1.623,3.574h-3.623c.143-1.43.477-3.574,2-3.574ZM82.371,49.224a26.841,26.841,0,0,1,4.244.426c.476.094.855.332.855,1.142,0,1.049-1.524,1.858-3.479,1.858-1.428,0-2.478-.617-2.478-1.62a2.28,2.28,0,0,1,.858-1.807Z" transform="translate(-5.941 -6.622)"/></svg>